<svg id="Layer_1" data-name="Layer 1" xmlns="http://www.w3.org/2000/svg" viewBox="0 0 240 70"><defs><style>.cls-1{fill:#bebebe;}.cls-2{fill:#fff;}.cls-3{fill:#f7931a;}.cls-4{fill:#141414;}</style></defs><title>cryptocurrency</title><path class="cls-1" d="M73.86,34.58A33.67,33.67,0,1,1,40.19.92,33.66,33.66,0,0,1,73.86,34.58"/><path class="cls-2" d="M38.23,43.58l2.18-8.24,5.18-1.89,1.29-4.84-.05-.12-5.09,1.87,3.67-13.83H35l-4.81,18-4,1.47-1.32,5,4-1.47L26,50.2H53.75l1.78-6.62H38.23"/><path class="cls-3" d="M232,25.88a33.66,33.66,0,1,1-41.23-23.8A33.65,33.65,0,0,1,232,25.88Z"/><path class="cls-2" d="M210.15,23.2c-1.59-4.25-5.74-4.7-10.6-3.84l-1.62-6-3.68,1,1.58,5.88c-1,.26-2,.55-2.92.83l-1.59-5.92-3.68,1,1.62,6c-.79.23-1.57.46-2.33.66v0l-5.07,1.36L182.91,28s2.7-.78,2.67-.72a2,2,0,0,1,2.54,1.05L190,35.25a2.65,2.65,0,0,1,.39-.08l-.38.1,2.58,9.65a1.34,1.34,0,0,1-1.06,1.58c.06,0-2.67.72-2.67.72l.45,4.59,4.78-1.28,2.64-.69L198.34,56,202,55l-1.62-6c1-.25,2-.5,2.94-.76l1.62,6,3.67-1L207,47.1c6.09-2,10-4.73,9-10.68-.82-4.79-3.58-6.29-7.32-6.19,1.84-1.66,2.66-3.93,1.5-7Zm-1.64,14.44c1.22,4.57-6.74,6.14-9.23,6.81l-2.17-8.09c2.5-.67,10.12-3.48,11.4,1.28Zm-4.78-11c1.12,4.15-5.54,5.41-7.61,6l-2-7.34C196.23,24.75,202.57,22.34,203.73,26.68Z"/><circle class="cls-4" cx="149.52" cy="34.58" r="33.67"/><polygon class="cls-2" points="149.52 42.69 149.52 42.69 162.55 34.98 149.52 13.35 149.52 13.35 149.52 13.35 149.52 13.35 149.52 13.35 136.48 34.98 149.52 42.69"/><polygon class="cls-2" points="149.52 55.82 162.56 37.45 149.52 45.15 149.52 45.15 136.48 37.45 149.52 55.82 149.52 55.82 149.52 55.82 149.52 55.82 149.52 55.82"/><path class="cls-3" d="M128.15,42.73a33.66,33.66,0,1,1-24.52-40.8,33.67,33.67,0,0,1,24.52,40.8Z"/><path class="cls-2" d="M110.34,29.79c.67-4.48-2.74-6.89-7.41-8.49l1.51-6.07-3.69-.92-1.47,5.91c-1-.25-2-.47-3-.7l1.48-5.95-3.69-.92-1.52,6.07c-.8-.18-1.59-.37-2.35-.56v0l-5.1-1.27-1,3.95s2.74.63,2.69.67a2,2,0,0,1,1.72,2.14l-1.73,6.92a2.08,2.08,0,0,1,.39.12l-.39-.1-2.42,9.69a1.35,1.35,0,0,1-1.69.88S80,40.47,80,40.47L78.21,44.7,83,45.9l2.63.67-1.53,6.14,3.69.92,1.52-6.07c1,.28,2,.53,2.94.77l-1.51,6,3.69.92L96,49.16c6.3,1.2,11,.72,13-5,1.61-4.59-.08-7.23-3.39-9,2.41-.56,4.23-2.15,4.72-5.43ZM101.9,41.63c-1.15,4.59-8.87,2.11-11.38,1.48l2-8.13c2.51.63,10.54,1.86,9.35,6.65ZM103,29.73c-1,4.17-7.47,2.05-9.56,1.53l1.84-7.38C97.41,24.4,104.12,25.37,103,29.73Z"/></svg>