<svg id="Layer_1" data-name="Layer 1" xmlns="http://www.w3.org/2000/svg" xmlns:xlink="http://www.w3.org/1999/xlink" viewBox="0 0 240 70"><defs><style>.cls-1{fill:none;}.cls-2{clip-path:url(#clip-path);}.cls-3{fill:#094ca0;}.cls-4{fill:#fff;}.cls-5{fill:#ec1c24;}.cls-6{clip-path:url(#clip-path-2);}.cls-7{fill:#d11242;}.cls-8{fill:#c40d3c;}.cls-9{fill:#00205c;}.cls-10{clip-path:url(#clip-path-3);}.cls-11{fill:#034ea1;}.cls-12{fill:#fff100;}.cls-13{clip-path:url(#clip-path-4);}.cls-14{fill:#00008b;}.cls-15{clip-path:url(#clip-path-5);}.cls-16,.cls-19{stroke:#fff;}.cls-16{stroke-width:6.31px;}.cls-17{clip-path:url(#clip-path-6);}.cls-18,.cls-20{stroke:red;}.cls-18{stroke-width:3.37px;}.cls-19{stroke-width:8.41px;}.cls-20{stroke-width:5.05px;}.cls-21{fill:#e98024;}</style><clipPath id="clip-path"><circle class="cls-1" cx="196.62" cy="35" r="33.43"/></clipPath><clipPath id="clip-path-2"><circle class="cls-1" cx="37.83" cy="35" r="33.43"/></clipPath><clipPath id="clip-path-3"><circle class="cls-1" cx="146.35" cy="35" r="33.43"/></clipPath><clipPath id="clip-path-4"><circle class="cls-1" cx="92.14" cy="35" r="33.43"/></clipPath><clipPath id="clip-path-5"><rect class="cls-1" x="48.97" y="1.57" width="42.48" height="34.12"/></clipPath><clipPath id="clip-path-6"><path class="cls-1" d="M49,1.57V18.63H98.53V35.7H91.45Zm42.48,0H70.21V41.38H49V35.7Z"/></clipPath></defs><title>fiat-c</title><g class="cls-2"><rect class="cls-3" x="156.28" y="1.57" width="80.7" height="66.85"/><path class="cls-4" d="M237,1.57H226.88l-21,17.4V1.57H187.34V19.68L165.12,1.57h-8.84v9l15.93,13.05H156.28V46.82h15.8L156.28,60v8.46h10.45l20.61-17.11V68.43h18.51V51l21.29,17.41H237V60.06L220.78,46.82H237V23.66H220.86L237,10.29Z"/><path class="cls-5" d="M182.25,23.66l-26-22.09V7.4l19.4,16.26Z"/><path class="cls-5" d="M211,46.82,237,68.43h0V63L217.6,46.82Z"/><path class="cls-5" d="M187.34,46.82H182L156.28,68.43h6.16l24.9-20.55Z"/><path class="cls-5" d="M205.85,23.66h5L237,2.11V1.57h-5.88L205.85,22.3Z"/><polygon class="cls-5" points="236.97 28.58 201.88 28.58 201.88 1.57 191.31 1.57 191.31 28.58 156.28 28.58 156.28 41.91 191.31 41.91 191.31 68.43 201.88 68.43 201.88 41.91 236.97 41.91 236.97 28.58"/></g><g class="cls-6"><rect class="cls-4" x="-14.21" y="1.07" width="127.05" height="66.85"/><rect class="cls-1" x="-14.21" y="47.35" width="127.05" height="5.14"/><rect class="cls-7" x="-14.21" y="42.21" width="127.05" height="5.15"/><rect class="cls-7" x="-14.21" y="62.78" width="127.05" height="5.14"/><rect class="cls-7" x="-14.21" y="52.49" width="127.05" height="5.15"/><rect class="cls-1" x="-14.21" y="37.06" width="127.05" height="5.14"/><rect class="cls-1" x="-14.21" y="57.64" width="127.05" height="5.14"/><rect class="cls-1" x="-14.21" y="26.78" width="127.05" height="5.14"/><rect class="cls-7" x="-14.21" y="31.92" width="127.05" height="5.14"/><rect class="cls-1" x="-14.21" y="6.21" width="127.05" height="5.15"/><rect class="cls-7" x="-14.21" y="11.36" width="127.05" height="5.14"/><rect class="cls-8" x="-14.21" y="1.07" width="127.05" height="5.14"/><rect class="cls-1" x="-14.21" y="16.49" width="127.05" height="5.15"/><rect class="cls-7" x="-14.21" y="21.64" width="127.05" height="5.14"/><rect class="cls-9" x="-14.21" y="1.07" width="50.76" height="35.94"/><polygon class="cls-4" points="2.42 5.58 2.94 7.17 4.61 7.17 3.26 8.15 3.77 9.74 2.42 8.76 1.07 9.74 1.59 8.15 0.24 7.17 1.91 7.17 2.42 5.58"/><polygon class="cls-4" points="10.86 5.58 11.37 7.17 13.04 7.17 11.69 8.15 12.21 9.74 10.86 8.76 9.51 9.74 10.03 8.15 8.68 7.17 10.34 7.17 10.86 5.58"/><polygon class="cls-4" points="19.39 5.58 19.91 7.17 21.58 7.17 20.23 8.15 20.74 9.74 19.39 8.76 18.05 9.74 18.56 8.15 17.21 7.17 18.88 7.17 19.39 5.58"/><polygon class="cls-4" points="27.82 5.58 28.33 7.17 30 7.17 28.65 8.15 29.17 9.74 27.82 8.76 26.47 9.74 26.98 8.15 25.63 7.17 27.3 7.17 27.82 5.58"/><polygon class="cls-4" points="2.42 12.91 2.94 14.5 4.61 14.5 3.26 15.48 3.77 17.06 2.42 16.08 1.07 17.06 1.59 15.48 0.24 14.5 1.91 14.5 2.42 12.91"/><polygon class="cls-4" points="10.86 12.91 11.37 14.5 13.04 14.5 11.69 15.48 12.21 17.06 10.86 16.08 9.51 17.06 10.03 15.48 8.68 14.5 10.34 14.5 10.86 12.91"/><polygon class="cls-4" points="19.39 12.91 19.91 14.5 21.58 14.5 20.23 15.48 20.74 17.06 19.39 16.08 18.05 17.06 18.56 15.48 17.21 14.5 18.88 14.5 19.39 12.91"/><polygon class="cls-4" points="27.82 12.91 28.33 14.5 30 14.5 28.65 15.48 29.17 17.06 27.82 16.08 26.47 17.06 26.98 15.48 25.63 14.5 27.3 14.5 27.82 12.91"/><polygon class="cls-4" points="2.42 20.11 2.94 21.7 4.61 21.7 3.26 22.68 3.77 24.27 2.42 23.29 1.07 24.27 1.59 22.68 0.24 21.7 1.91 21.7 2.42 20.11"/><polygon class="cls-4" points="10.86 20.11 11.37 21.7 13.04 21.7 11.69 22.68 12.21 24.27 10.86 23.29 9.51 24.27 10.03 22.68 8.68 21.7 10.34 21.7 10.86 20.11"/><polygon class="cls-4" points="19.39 20.11 19.91 21.7 21.58 21.7 20.23 22.68 20.74 24.27 19.39 23.29 18.05 24.27 18.56 22.68 17.21 21.7 18.88 21.7 19.39 20.11"/><polygon class="cls-4" points="27.82 20.11 28.33 21.7 30 21.7 28.65 22.68 29.17 24.27 27.82 23.29 26.47 24.27 26.98 22.68 25.63 21.7 27.3 21.7 27.82 20.11"/><polygon class="cls-4" points="2.42 27.39 2.94 28.98 4.61 28.98 3.26 29.96 3.77 31.55 2.42 30.57 1.07 31.55 1.59 29.96 0.24 28.98 1.91 28.98 2.42 27.39"/><polygon class="cls-4" points="10.86 27.39 11.37 28.98 13.04 28.98 11.69 29.96 12.21 31.55 10.86 30.57 9.51 31.55 10.03 29.96 8.68 28.98 10.34 28.98 10.86 27.39"/><polygon class="cls-4" points="19.39 27.39 19.91 28.98 21.58 28.98 20.23 29.96 20.74 31.55 19.39 30.57 18.05 31.55 18.56 29.96 17.21 28.98 18.88 28.98 19.39 27.39"/><polygon class="cls-4" points="27.82 27.39 28.33 28.98 30 28.98 28.65 29.96 29.17 31.55 27.82 30.57 26.47 31.55 26.98 29.96 25.63 28.98 27.3 28.98 27.82 27.39"/><polygon class="cls-4" points="-1.82 9.23 -1.3 10.82 0.36 10.82 -0.98 11.8 -0.47 13.38 -1.82 12.4 -3.17 13.38 -2.65 11.8 -4 10.82 -2.33 10.82 -1.82 9.23"/><polygon class="cls-4" points="6.62 9.23 7.13 10.82 8.8 10.82 7.45 11.8 7.96 13.38 6.62 12.4 5.27 13.38 5.78 11.8 4.43 10.82 6.1 10.82 6.62 9.23"/><polygon class="cls-4" points="15.15 9.23 15.67 10.82 17.33 10.82 15.98 11.8 16.5 13.38 15.15 12.4 13.8 13.38 14.32 11.8 12.97 10.82 14.63 10.82 15.15 9.23"/><polygon class="cls-4" points="23.57 9.23 24.09 10.82 25.76 10.82 24.41 11.8 24.92 13.38 23.57 12.4 22.22 13.38 22.74 11.8 21.39 10.82 23.06 10.82 23.57 9.23"/><polygon class="cls-4" points="32.05 9.23 32.57 10.82 34.24 10.82 32.89 11.8 33.4 13.38 32.05 12.4 30.7 13.38 31.22 11.8 29.87 10.82 31.54 10.82 32.05 9.23"/><polygon class="cls-4" points="-1.82 1.96 -1.3 3.54 0.36 3.54 -0.98 4.52 -0.47 6.11 -1.82 5.13 -3.17 6.11 -2.65 4.52 -4 3.54 -2.33 3.54 -1.82 1.96"/><polygon class="cls-4" points="6.62 1.96 7.13 3.54 8.8 3.54 7.45 4.52 7.96 6.11 6.62 5.13 5.27 6.11 5.78 4.52 4.43 3.54 6.1 3.54 6.62 1.96"/><polygon class="cls-4" points="15.15 1.96 15.67 3.54 17.33 3.54 15.98 4.52 16.5 6.11 15.15 5.13 13.8 6.11 14.32 4.52 12.97 3.54 14.63 3.54 15.15 1.96"/><polygon class="cls-4" points="23.57 1.96 24.09 3.54 25.76 3.54 24.41 4.52 24.92 6.11 23.57 5.13 22.22 6.11 22.74 4.52 21.39 3.54 23.06 3.54 23.57 1.96"/><polygon class="cls-4" points="32.05 1.96 32.57 3.54 34.24 3.54 32.89 4.52 33.4 6.11 32.05 5.13 30.7 6.11 31.22 4.52 29.87 3.54 31.54 3.54 32.05 1.96"/><polygon class="cls-4" points="-1.82 16.53 -1.3 18.11 0.36 18.11 -0.98 19.09 -0.47 20.68 -1.82 19.7 -3.17 20.68 -2.65 19.09 -4 18.11 -2.33 18.11 -1.82 16.53"/><polygon class="cls-4" points="6.62 16.53 7.13 18.11 8.8 18.11 7.45 19.09 7.96 20.68 6.62 19.7 5.27 20.68 5.78 19.09 4.43 18.11 6.1 18.11 6.62 16.53"/><polygon class="cls-4" points="15.15 16.53 15.67 18.11 17.33 18.11 15.98 19.09 16.5 20.68 15.15 19.7 13.8 20.68 14.32 19.09 12.97 18.11 14.63 18.11 15.15 16.53"/><polygon class="cls-4" points="23.57 16.53 24.09 18.11 25.76 18.11 24.41 19.09 24.92 20.68 23.57 19.7 22.22 20.68 22.74 19.09 21.39 18.11 23.06 18.11 23.57 16.53"/><polygon class="cls-4" points="32.05 16.53 32.57 18.11 34.24 18.11 32.89 19.09 33.4 20.68 32.05 19.7 30.7 20.68 31.22 19.09 29.87 18.11 31.54 18.11 32.05 16.53"/><polygon class="cls-4" points="-1.82 23.83 -1.3 25.42 0.36 25.42 -0.98 26.4 -0.47 27.98 -1.82 27 -3.17 27.98 -2.65 26.4 -4 25.42 -2.33 25.42 -1.82 23.83"/><polygon class="cls-4" points="6.62 23.83 7.13 25.42 8.8 25.42 7.45 26.4 7.96 27.98 6.62 27 5.27 27.98 5.78 26.4 4.43 25.42 6.1 25.42 6.62 23.83"/><polygon class="cls-4" points="15.15 23.83 15.67 25.42 17.33 25.42 15.98 26.4 16.5 27.98 15.15 27 13.8 27.98 14.32 26.4 12.97 25.42 14.63 25.42 15.15 23.83"/><polygon class="cls-4" points="23.57 23.83 24.09 25.42 25.76 25.42 24.41 26.4 24.92 27.98 23.57 27 22.22 27.98 22.74 26.4 21.39 25.42 23.06 25.42 23.57 23.83"/><polygon class="cls-4" points="32.05 23.83 32.57 25.42 34.24 25.42 32.89 26.4 33.4 27.98 32.05 27 30.7 27.98 31.22 26.4 29.87 25.42 31.54 25.42 32.05 23.83"/><polygon class="cls-4" points="-1.82 30.99 -1.3 32.58 0.36 32.58 -0.98 33.55 -0.47 35.14 -1.82 34.16 -3.17 35.14 -2.65 33.55 -4 32.58 -2.33 32.58 -1.82 30.99"/><polygon class="cls-4" points="6.62 30.99 7.13 32.58 8.8 32.58 7.45 33.55 7.96 35.14 6.62 34.16 5.27 35.14 5.78 33.55 4.43 32.58 6.1 32.58 6.62 30.99"/><polygon class="cls-4" points="15.15 30.99 15.67 32.58 17.33 32.58 15.98 33.55 16.5 35.14 15.15 34.16 13.8 35.14 14.32 33.55 12.97 32.58 14.63 32.58 15.15 30.99"/><polygon class="cls-4" points="23.57 30.99 24.09 32.58 25.76 32.58 24.41 33.55 24.92 35.14 23.57 34.16 22.22 35.14 22.74 33.55 21.39 32.58 23.06 32.58 23.57 30.99"/><polygon class="cls-4" points="32.05 30.99 32.57 32.58 34.24 32.58 32.89 33.55 33.4 35.14 32.05 34.16 30.7 35.14 31.22 33.55 29.87 32.58 31.54 32.58 32.05 30.99"/></g><g class="cls-10"><rect class="cls-11" x="96.21" y="1.57" width="100.28" height="66.85"/><polygon class="cls-12" points="144.22 16.14 146.33 14.6 148.45 16.14 147.64 13.64 149.79 12.1 147.14 12.1 146.33 9.57 145.52 12.1 142.87 12.1 145.02 13.64 144.22 16.14"/><polygon class="cls-12" points="133.26 19.08 135.38 17.54 137.5 19.08 136.69 16.59 138.84 15.04 136.19 15.04 135.38 12.51 134.57 15.04 131.92 15.04 134.07 16.59 133.26 19.08"/><polygon class="cls-12" points="127.37 20.54 126.56 23.07 123.91 23.07 126.06 24.61 125.25 27.11 127.37 25.57 129.48 27.11 128.68 24.61 130.83 23.07 128.18 23.07 127.37 20.54"/><polygon class="cls-12" points="124.43 36.5 126.54 38.05 125.74 35.55 127.89 34.01 125.24 34.01 124.43 31.48 123.62 34.01 120.97 34.01 123.12 35.55 122.31 38.05 124.43 36.5"/><polygon class="cls-12" points="128.18 44.98 127.37 42.45 126.56 44.98 123.91 44.98 126.06 46.52 125.25 49.02 127.37 47.47 129.48 49.02 128.68 46.52 130.83 44.98 128.18 44.98"/><polygon class="cls-12" points="136.21 53 135.4 50.48 134.59 53.01 131.94 53 134.09 54.55 133.28 57.05 135.4 55.5 137.51 57.05 136.71 54.55 138.85 53 136.21 53"/><polygon class="cls-12" points="147.14 55.91 146.33 53.38 145.52 55.92 142.87 55.91 145.02 57.46 144.22 59.95 146.33 58.41 148.45 59.95 147.64 57.46 149.79 55.91 147.14 55.91"/><polygon class="cls-12" points="158.08 53 157.27 50.48 156.46 53.01 153.81 53 155.96 54.55 155.15 57.05 157.27 55.5 159.39 57.05 158.58 54.55 160.73 53 158.08 53"/><polygon class="cls-12" points="166.11 44.98 165.3 42.45 164.49 44.98 161.84 44.98 163.99 46.52 163.18 49.02 165.3 47.47 167.41 49.02 166.61 46.52 168.76 44.98 166.11 44.98"/><polygon class="cls-12" points="171.66 33.98 169.01 33.98 168.2 31.45 167.39 33.98 164.75 33.98 166.89 35.52 166.09 38.02 168.2 36.47 170.32 38.02 169.52 35.52 171.66 33.98"/><polygon class="cls-12" points="163.18 27.08 165.3 25.53 167.41 27.08 166.61 24.58 168.76 23.04 166.11 23.04 165.3 20.51 164.49 23.04 161.84 23.04 163.99 24.58 163.18 27.08"/><polygon class="cls-12" points="157.3 12.51 156.49 15.04 153.84 15.04 155.99 16.59 155.18 19.08 157.3 17.54 159.42 19.08 158.61 16.59 160.76 15.04 158.11 15.04 157.3 12.51"/></g><g class="cls-13"><rect class="cls-14" x="48.97" y="1.57" width="84.96" height="68.25"/><g class="cls-15"><path class="cls-16" d="M49,1.57,91.45,35.7m0-34.13L49,35.7"/></g><g class="cls-17"><path class="cls-18" d="M49,1.57,91.45,35.7m0-34.13L49,35.7"/></g><path class="cls-19" d="M70.21,1.57V41.38M49,18.63H98.53"/><path class="cls-20" d="M70.21,1.57V38.1M49,18.63h44"/><path class="cls-14" d="M49,35.7H91.45V1.57h14.16v45.5H49Z"/><g id="Comwlth"><path id="_7PS" data-name="7PS" class="cls-4" d="M65,42.52l2,6.14,6-2.28-3.57,5.37L75,55l-6.43.55L69.43,62,65,57.31,60.54,62l.89-6.39L55,55l5.55-3.29L57,46.38l6,2.28Z"/></g><g id="αCrucis"><path id="_7PS-2" data-name="7PS" class="cls-4" d="M113.75,51.27l.82,2.55,2.51-1-1.49,2.24,2.31,1.37-2.67.23.37,2.65-1.85-1.94-1.85,1.94.37-2.65-2.67-.23,2.31-1.37-1.49-2.24,2.51,1Z"/></g><g id="βCrucis"><path id="_7PS-3" data-name="7PS" class="cls-4" d="M98.85,27.69l.82,2.55,2.51-.95-1.48,2.23,2.3,1.37-2.67.23.37,2.66-1.85-2-1.84,2,.36-2.66-2.67-.23L97,31.52l-1.48-2.23,2.5.95Z"/></g><g id="γCrucis"><path id="_7PS-4" data-name="7PS" class="cls-4" d="M113.75,11.55l.82,2.55,2.51-.95-1.49,2.23,2.31,1.37-2.67.23.37,2.66-1.85-1.95-1.85,1.95.37-2.66-2.67-.23,2.31-1.37-1.49-2.23,2.51.95Z"/></g><g id="δCrucis"><path id="_7PS-5" data-name="7PS" class="cls-4" d="M127,23.71l.82,2.55,2.51-.94-1.48,2.23,2.3,1.37-2.67.23.37,2.65L127,29.86l-1.84,1.94.36-2.65-2.67-.23,2.31-1.37-1.49-2.23,2.51.94Z"/></g><g id="εCrucis"><path id="_5PS" data-name="5PS" class="cls-4" d="M119.71,35.67l.65,1.59,1.71.12-1.31,1.11.41,1.67-1.46-.91-1.46.91.41-1.67-1.31-1.11,1.71-.12Z"/></g></g><circle class="cls-21" cx="113.73" cy="55.26" r="11.84"/><path class="cls-4" d="M111.36,57.08a2.18,2.18,0,0,0,2.24,1.79c1.36,0,2.18-.51,2.18-1.76,0-1-.45-1.61-2.23-2.09-2-.54-3-1.21-3-2.7s1.2-2.51,2.93-2.51c2.33,0,3,1.4,3.11,2.33h-1a1.92,1.92,0,0,0-2.12-1.52c-1.39,0-1.9.75-1.9,1.59s.51,1.45,2.16,1.88c2.42.64,3.06,1.59,3.06,2.92,0,1.71-1.19,2.7-3.27,2.68a2.91,2.91,0,0,1-3.18-2.61Zm1.89,4V48.79H114V61Z"/><circle class="cls-21" cx="56.63" cy="55.26" r="11.84"/><path class="cls-4" d="M54.26,57.08a2.16,2.16,0,0,0,2.23,1.79c1.37,0,2.19-.51,2.19-1.76,0-1-.46-1.61-2.23-2.09-2-.54-3-1.21-3-2.7s1.2-2.51,2.93-2.51c2.32,0,3,1.4,3.1,2.33h-1a1.93,1.93,0,0,0-2.13-1.52c-1.39,0-1.89.75-1.89,1.59s.5,1.45,2.15,1.88c2.42.64,3.07,1.59,3.07,2.92,0,1.71-1.2,2.7-3.28,2.68a2.9,2.9,0,0,1-3.17-2.61Zm1.89,4V48.79h.76V61Z"/><circle class="cls-21" cx="172.23" cy="55.26" r="11.84"/><path class="cls-4" d="M168.84,54.19h4.65V55h-4.65Zm.19,5.4v-.83c.91-.47,1.21-1.67,1.21-3.1,0-1.06-.06-1.57-.06-2.72,0-1.9.82-3.18,2.63-3.18a2.39,2.39,0,0,1,2.53,2.33h-1a1.56,1.56,0,0,0-1.61-1.45c-1.22,0-1.57.84-1.57,2.23,0,1.05.05,1.56.05,2.77a4.4,4.4,0,0,1-.85,3h5.28l-.16.91Z"/><circle class="cls-21" cx="223.76" cy="55.26" r="11.84"/><path class="cls-4" d="M220.25,54.17v-.76h4.86v.76Zm0,1.73v-.76h4.86v.76Zm6.93,1.45a2.81,2.81,0,0,1-2.82,2.4c-2.22,0-3.22-2-3.22-5,0-3.22,1.27-5,3.3-5a2.63,2.63,0,0,1,2.74,2.37h-1a1.82,1.82,0,0,0-1.8-1.47c-1.45,0-2.24,1.32-2.24,4.1,0,2.54.69,4.1,2.23,4.1a1.88,1.88,0,0,0,1.82-1.49Z"/></svg>