<svg xmlns="http://www.w3.org/2000/svg" xmlns:xlink="http://www.w3.org/1999/xlink" version="1.1" x="0px" y="0px" viewBox="0 0 100 125" style="enable-background:new 0 0 100 100;" xml:space="preserve"><path d="M68.6,74"/><path d="M90.9,60.8l-19.5,5.5l0,0.1c0.5,2,0.2,4-0.8,5.8c-1.1,1.9-2.8,3.3-4.9,3.8c-2.1,0.6-4.3,0.3-6.1-0.7  l-11.2-6.3l1.1-1.9l11.2,6.3c1.4,0.8,3,1,4.5,0.5s2.8-1.4,3.5-2.8c0.4-0.7,0.6-1.5,0.7-2.3c0.3-2-0.6-3.9-2.3-4.9L39.8,48.8  c0,0-2.9-1.9-6.7-0.8c0,0,0,0-0.1,0c-0.7,0.1-30,8.5-31.3,8.9l-0.1,0l6,21l19.6-5.6c2,1.2,16.9,10.5,18.8,11.5  c3.3,1.9,7.4,0.9,8.3,0.6c0.1,0,40-11.4,40-11.4c2.8-0.8,5-4.5,4-8.2C97.4,61.8,94.1,59.9,90.9,60.8z"/><path d="M91,34.3H76.9v18.8H91c0.3,0,0.5-0.2,0.5-0.4V34.6C91.4,34.4,91.2,34.3,91,34.3z"/><path d="M72.5,34.3h-14c-0.3,0-0.5,0.2-0.5,0.4v18.1c0,0.2,0.2,0.4,0.5,0.4h14V34.3z"/><path d="M84.9,17.7l-0.2-0.5c-1-2-3.4-2.9-5.4-1.9c-0.2,0.1-1.1,0.5-1.8,1.5c-0.5,0.6-1.9,2.6-2.8,3.9c-0.9-1.2-2.4-3.3-2.8-3.9  c-0.8-1-1.6-1.5-1.8-1.5c-1.9-1-4.3-0.1-5.4,1.9l-0.2,0.5c-0.5,1-0.6,2.1-0.3,3.1c0.3,1,1,1.9,1.9,2.4c0.2,0.1,1.1,0.5,2.3,0.6  c0.3,0,12.2,0,12.5,0c1.3,0,2.1-0.5,2.3-0.6c0.9-0.5,1.6-1.3,1.9-2.4C85.5,19.8,85.4,18.7,84.9,17.7z M68.5,21.3  c-0.7,0-1.2-0.3-1.2-0.3l0,0c-0.3-0.2-0.6-0.5-0.7-0.9c-0.1-0.4-0.1-0.8,0.1-1.2l0.2-0.5c0.4-0.8,1.3-1.1,2-0.8l0,0  c0,0,0.5,0.3,0.9,0.8c0.3,0.4,1.2,1.7,2.1,2.8C70.6,21.3,69,21.3,68.5,21.3z M82.8,20.1c-0.1,0.4-0.4,0.7-0.7,0.9l0,0  c0,0-0.5,0.2-1.2,0.3c-0.5,0-2.1,0-3.5,0c0.8-1.1,1.7-2.4,2.1-2.8c0.4-0.6,0.9-0.8,0.9-0.8h0l0,0c0.7-0.4,1.6,0,2,0.8l0.2,0.5  C82.9,19.3,83,19.7,82.8,20.1z"/><path d="M72.5,25.5H55.5c-0.3,0-0.5,0.2-0.5,0.5v5.8c0,0.3,0.2,0.5,0.5,0.5h16.9V25.5z"/><path d="M93.8,25.5H76.9v6.7h16.9c0.3,0,0.5-0.2,0.5-0.5V26C94.3,25.7,94.1,25.5,93.8,25.5z"/><text x="0" y="115" fill="#000000" font-size="5px" font-weight="bold" font-family="'Helvetica Neue', Helvetica, Arial-Unicode, Arial, Sans-serif">Created by Aneeque Ahmed</text><text x="0" y="120" fill="#000000" font-size="5px" font-weight="bold" font-family="'Helvetica Neue', Helvetica, Arial-Unicode, Arial, Sans-serif">from the Noun Project</text></svg>